<?xml version="1.0" encoding="UTF-8"?>
<!DOCTYPE svg PUBLIC "-//W3C//DTD SVG 1.1//EN" "http://www.w3.org/Graphics/SVG/1.1/DTD/svg11.dtd">
<!-- Creator: CorelDRAW X8 -->
<svg xmlns="http://www.w3.org/2000/svg" xml:space="preserve" width="300px" height="62px" version="1.1" style="shape-rendering:geometricPrecision; text-rendering:geometricPrecision; image-rendering:optimizeQuality; fill-rule:evenodd; clip-rule:evenodd"
viewBox="0 0 3000 620"
 xmlns:xlink="http://www.w3.org/1999/xlink">
 <defs>
  <style type="text/css">
   <![CDATA[
    .fil3 {fill:#ED3237}
    .fil2 {fill:#3E4095}
    .fil1 {fill:#373435;fill-rule:nonzero}
    .fil0 {fill:#3E4095;fill-rule:nonzero}
   ]]>
  </style>
 </defs>
 <g id="Camada_x0020_1">
  <metadata id="CorelCorpID_0Corel-Layer"/>
  <g id="_2357610173840">
   <polygon class="fil0" points="67,166 341,166 341,241 249,241 249,468 159,468 159,241 67,241 "/>
   <path class="fil0" d="M383 468l0 -302 150 0c27,0 49,2 63,7 15,5 27,15 36,28 9,13 13,30 13,49 0,17 -3,31 -10,43 -7,13 -16,22 -29,30 -7,5 -18,9 -31,12 11,4 18,7 23,11 4,3 8,8 15,16 6,8 10,14 12,19l44 87 -102 0 -48 -92c-6,-12 -11,-20 -16,-23 -7,-5 -14,-7 -22,-7l-8 0 0 122 -90 0zm90 -179l38 0c4,0 12,-2 24,-4 6,-2 11,-5 14,-10 4,-5 6,-11 6,-17 0,-10 -3,-18 -9,-23 -6,-5 -17,-8 -34,-8l-39 0 0 62z"/>
   <path class="fil0" d="M877 418l-102 0 -15 50 -92 0 110 -302 99 0 109 302 -94 0 -15 -50zm-19 -65l-32 -109 -32 109 64 0z"/>
   <polygon class="fil0" points="1015,166 1099,166 1208,333 1208,166 1293,166 1293,468 1208,468 1100,302 1100,468 1015,468 "/>
  </g>
  <g id="_2357610165136">
   <path class="fil0" d="M1908 342l81 24c-6,23 -14,42 -26,58 -12,15 -26,27 -44,34 -17,8 -39,12 -65,12 -33,0 -59,-5 -80,-14 -20,-10 -38,-26 -53,-50 -15,-24 -22,-55 -22,-93 0,-50 13,-88 39,-115 26,-27 63,-40 111,-40 38,0 67,8 89,23 21,15 37,39 48,71l-82 18c-2,-9 -5,-16 -8,-20 -6,-7 -12,-12 -19,-16 -8,-4 -16,-6 -25,-6 -21,0 -37,9 -48,25 -9,13 -13,33 -13,60 0,33 5,56 15,69 10,12 24,18 42,18 18,0 31,-5 40,-15 9,-10 16,-24 20,-43z"/>
   <path class="fil0" d="M2021 314c0,-49 14,-87 41,-115 27,-27 65,-41 113,-41 50,0 88,13 115,40 27,27 40,65 40,114 0,35 -6,64 -18,87 -11,22 -28,40 -50,52 -23,13 -50,19 -83,19 -34,0 -62,-5 -84,-16 -22,-11 -39,-28 -53,-52 -14,-23 -21,-52 -21,-88zm92 1c0,30 6,52 17,65 11,13 27,20 46,20 20,0 35,-6 46,-19 11,-13 16,-37 16,-71 0,-28 -6,-49 -17,-62 -11,-13 -27,-20 -46,-20 -19,0 -34,7 -45,20 -11,14 -17,36 -17,67z"/>
   <polygon class="fil0" points="2348,163 2628,163 2628,238 2534,238 2534,465 2442,465 2442,238 2348,238 "/>
   <path class="fil0" d="M2824 415l-104 0 -15 50 -94 0 112 -302 101 0 111 302 -96 0 -15 -50zm-19 -65l-33 -109 -33 109 66 0z"/>
  </g>
  <path class="fil1" d="M1767 569c0,0 0,1 -1,2 0,0 0,1 0,1 0,1 0,1 -1,1 0,0 0,0 -1,0l-40 0c-1,0 -2,0 -3,-1 -1,0 -1,-1 -1,-3l0 -75c0,0 0,0 0,0 0,-1 0,-1 1,-1 0,0 1,0 2,0 1,-1 2,-1 3,-1 1,0 2,0 3,1 0,0 1,0 1,0 1,0 1,0 1,1 1,0 1,0 1,0l0 70 32 0c1,0 1,0 1,0 1,0 1,1 1,1 0,0 0,1 0,1 1,1 1,2 1,3z"/>
  <path id="1" class="fil1" d="M1837 543c0,5 -1,9 -2,13 -1,4 -3,7 -6,10 -3,2 -6,5 -10,6 -4,2 -9,2 -14,2 -5,0 -10,0 -14,-2 -4,-1 -7,-3 -9,-6 -3,-2 -5,-5 -6,-9 -1,-4 -2,-8 -2,-13 0,-4 1,-9 2,-12 1,-4 3,-8 6,-10 3,-3 6,-5 10,-7 4,-1 9,-2 14,-2 5,0 10,1 14,2 4,1 7,3 9,6 3,3 5,6 6,9 1,4 2,8 2,13zm-12 1c0,-3 0,-6 -1,-9 -1,-3 -2,-5 -3,-7 -2,-2 -4,-4 -6,-5 -2,-1 -6,-2 -9,-2 -4,0 -7,1 -9,2 -3,1 -5,3 -6,5 -2,2 -3,4 -4,7 0,2 -1,5 -1,8 0,4 0,6 1,9 1,3 2,5 3,7 2,2 4,4 6,5 3,1 6,2 9,2 4,0 7,-1 9,-2 3,-1 5,-2 6,-4 2,-2 3,-5 4,-7 1,-3 1,-6 1,-9z"/>
  <path id="2" class="fil1" d="M1907 518c0,2 -1,3 -1,4 0,0 -1,0 -2,0l-9 0c2,2 3,4 4,5 0,2 1,4 1,6 0,3 -1,6 -2,9 -1,2 -3,4 -5,6 -2,2 -5,3 -8,4 -3,1 -6,1 -10,1 -2,0 -5,0 -7,-1 -2,0 -4,-1 -5,-2 -1,1 -2,2 -2,3 -1,1 -1,2 -1,3 0,1 1,3 2,3 2,1 4,2 6,2l17 1c3,0 6,0 8,1 3,1 5,1 7,3 2,1 3,3 4,4 1,2 2,4 2,7 0,2 -1,5 -2,7 -1,2 -3,5 -5,6 -3,2 -6,3 -10,4 -4,1 -8,2 -14,2 -5,0 -9,0 -13,-1 -3,-1 -6,-2 -8,-3 -3,-2 -4,-3 -5,-5 -1,-2 -2,-4 -2,-6 0,-1 0,-3 1,-4 0,-1 1,-3 1,-4 1,-1 2,-2 3,-3 1,-1 3,-2 4,-3 -2,-1 -4,-3 -5,-4 -1,-2 -1,-3 -1,-5 0,-3 0,-5 1,-7 1,-2 3,-4 4,-5 -1,-2 -2,-4 -3,-6 -1,-1 -1,-4 -1,-7 0,-3 0,-6 2,-8 1,-3 3,-5 5,-7 2,-1 4,-3 7,-4 3,0 7,-1 10,-1 2,0 4,0 6,0 1,1 3,1 4,1l19 0c1,0 2,1 2,1 0,1 1,2 1,3zm-18 15c0,-4 -2,-7 -4,-9 -2,-2 -6,-3 -10,-3 -2,0 -4,0 -6,1 -1,1 -3,2 -4,3 -1,1 -2,2 -2,4 -1,1 -1,3 -1,4 0,4 1,7 3,9 3,2 6,3 10,3 3,0 5,0 6,-1 2,0 3,-1 4,-2 1,-2 2,-3 3,-4 0,-2 1,-3 1,-5zm5 44c0,-2 -1,-4 -3,-5 -2,-2 -5,-2 -9,-2l-16 -1c-2,1 -3,2 -4,3 -1,1 -2,2 -2,3 -1,1 -1,2 -1,2 -1,1 -1,2 -1,3 0,3 2,5 5,6 3,1 7,2 13,2 3,0 6,0 9,-1 2,0 4,-1 5,-2 2,-1 3,-2 3,-4 1,-1 1,-2 1,-4z"/>
  <path id="3" class="fil1" d="M1933 572c0,0 0,0 0,1 0,0 -1,0 -1,0 0,0 -1,0 -2,1 -1,0 -2,0 -3,0 -1,0 -2,0 -2,0 -1,-1 -2,-1 -2,-1 -1,0 -1,0 -1,0 0,-1 0,-1 0,-1l0 -56c0,-1 0,-1 0,-1 0,0 0,-1 1,-1 0,0 1,0 2,0 0,0 1,0 2,0 1,0 2,0 3,0 1,0 2,0 2,0 0,0 1,1 1,1 0,0 0,0 0,1l0 56zm-1 -84c0,0 0,0 1,-1 0,0 1,0 1,0 1,-1 1,-1 2,-1 1,0 2,0 3,0 1,0 2,0 3,0 1,1 2,1 2,1 0,0 0,1 0,1 0,0 0,1 0,1l-13 15c0,0 -1,0 -1,1 0,0 -1,0 -1,0 0,0 -1,0 -2,0 0,1 -1,1 -2,1 -1,0 -2,-1 -2,-1 -1,0 -1,0 -2,0 0,0 0,-1 0,-1 0,0 0,-1 1,-1l10 -15z"/>
  <path id="4" class="fil1" d="M1994 556c0,3 -1,6 -2,8 -1,2 -3,4 -5,6 -2,1 -5,2 -8,3 -3,1 -6,1 -10,1 -2,0 -4,0 -6,0 -2,0 -4,-1 -6,-1 -1,-1 -3,-1 -4,-2 -1,0 -2,-1 -2,-1 -1,0 -1,-1 -1,-2 0,-1 -1,-2 -1,-3 0,-1 0,-1 1,-2 0,0 0,-1 0,-1 0,0 0,-1 0,-1 1,0 1,0 1,0 1,0 2,0 3,1 1,0 2,1 3,2 2,0 4,1 6,1 2,1 4,1 6,1 2,0 4,0 6,0 1,-1 3,-1 4,-2 1,-1 2,-2 3,-3 0,-1 0,-2 0,-4 0,-1 0,-3 -1,-4 -1,-1 -2,-2 -3,-3 -2,0 -4,-1 -5,-2 -2,0 -4,-1 -6,-2 -2,-1 -4,-1 -6,-2 -2,-1 -4,-2 -5,-3 -2,-2 -3,-3 -4,-5 -1,-2 -1,-4 -1,-6 0,-3 0,-5 1,-7 1,-2 3,-4 5,-5 2,-2 4,-3 7,-4 3,-1 6,-1 10,-1 2,0 3,0 5,0 2,1 3,1 5,1 1,1 2,1 3,2 1,0 2,0 2,1 1,0 1,0 1,1 0,0 0,0 0,0 1,1 1,1 1,2 0,0 0,1 0,1 0,1 0,2 0,2 0,1 0,1 -1,1 0,1 0,1 0,1 0,0 -1,0 -1,0 0,0 -1,0 -2,0 -1,-1 -2,-1 -3,-2 -1,0 -3,-1 -4,-1 -2,-1 -4,-1 -6,-1 -2,0 -4,0 -5,1 -2,0 -3,0 -4,1 -1,1 -2,2 -2,3 -1,1 -1,2 -1,3 0,2 0,3 1,4 1,1 3,2 4,3 2,1 3,1 5,2 2,1 4,2 6,2 2,1 4,2 6,3 2,0 4,2 5,3 1,1 3,2 4,4 1,2 1,4 1,6z"/>
  <path id="5" class="fil1" d="M2042 568c0,1 -1,2 -1,2 0,1 0,2 -1,2 0,0 -1,1 -1,1 -1,0 -2,0 -3,1 -1,0 -2,0 -3,0 -1,0 -2,0 -3,0 -3,0 -6,0 -8,-1 -3,-1 -5,-2 -6,-3 -2,-2 -3,-4 -3,-6 -1,-3 -1,-5 -1,-9l0 -32 -9 0c-1,0 -2,-1 -2,-1 0,-1 -1,-2 -1,-4 0,0 0,-1 1,-1 0,-1 0,-2 0,-2 0,0 0,0 1,-1 0,0 0,0 1,0l9 0 0 -13c0,0 0,-1 0,-1 0,0 0,0 1,-1 0,0 1,0 2,0 0,0 1,0 2,0 2,0 2,0 3,0 1,0 2,0 2,0 0,1 1,1 1,1 0,0 0,1 0,1l0 13 16 0c1,0 1,0 1,0 0,1 1,1 1,1 0,0 0,1 0,2 0,0 1,1 1,1 0,2 -1,3 -1,4 -1,0 -1,1 -2,1l-16 0 0 31c0,4 1,7 2,9 1,2 4,3 7,3 1,0 2,-1 3,-1 1,0 1,0 2,0 1,-1 1,-1 2,-1 0,0 1,0 1,0 0,0 0,0 1,0 0,0 0,0 0,1 0,0 0,0 0,1 0,0 1,1 1,2z"/>
  <path id="6" class="fil1" d="M2068 572c0,0 0,0 0,1 0,0 0,0 -1,0 0,0 -1,0 -1,1 -1,0 -2,0 -3,0 -2,0 -2,0 -3,0 -1,-1 -2,-1 -2,-1 0,0 -1,0 -1,0 0,-1 0,-1 0,-1l0 -56c0,-1 0,-1 0,-1 0,0 1,-1 1,-1 0,0 1,0 2,0 1,0 1,0 3,0 1,0 2,0 3,0 0,0 1,0 1,0 1,0 1,1 1,1 0,0 0,0 0,1l0 56zm2 -75c0,2 -1,4 -2,5 -1,1 -3,1 -5,1 -3,0 -5,0 -6,-1 -1,-1 -2,-3 -2,-5 0,-2 1,-4 2,-5 1,-1 3,-1 6,-1 2,0 4,0 5,1 1,1 2,2 2,5z"/>
  <path id="7" class="fil1" d="M2135 563c0,1 0,1 0,2 0,0 0,1 0,1 0,1 -1,1 -1,1 0,0 0,1 -1,1 0,1 -1,2 -3,2 -1,1 -3,2 -5,2 -1,1 -3,1 -5,2 -2,0 -4,0 -7,0 -4,0 -8,0 -12,-2 -3,-1 -6,-3 -8,-5 -3,-3 -5,-6 -6,-10 -1,-3 -2,-8 -2,-13 0,-5 1,-10 3,-14 1,-4 3,-7 6,-10 2,-2 6,-4 9,-5 4,-1 8,-2 12,-2 2,0 4,0 6,1 1,0 3,0 5,1 1,0 3,1 4,2 1,0 2,1 3,2 0,0 1,0 1,1 0,0 0,0 0,1 1,0 1,1 1,1 0,1 0,1 0,2 0,2 0,3 -1,3 0,1 -1,1 -1,1 -1,0 -2,0 -3,-1 -1,0 -2,-1 -3,-2 -2,-1 -3,-2 -5,-2 -2,-1 -5,-1 -7,-1 -6,0 -10,2 -13,5 -3,4 -5,10 -5,17 0,3 1,7 1,9 1,3 2,5 4,7 1,2 3,3 5,4 3,1 5,2 8,2 3,0 5,-1 7,-2 2,0 4,-1 5,-2 2,-1 3,-2 4,-3 1,0 2,-1 2,-1 0,0 1,0 1,1 0,0 0,0 1,0 0,1 0,1 0,2 0,1 0,1 0,2z"/>
  <path id="8" class="fil1" d="M2197 572c0,0 -1,1 -1,1 0,0 -1,0 -2,0 0,1 -1,1 -2,1 -2,0 -3,0 -3,-1 -1,0 -2,0 -2,0 0,0 0,-1 0,-1l0 -6c-3,3 -6,5 -10,6 -3,2 -7,2 -10,2 -4,0 -7,0 -9,-1 -3,0 -5,-2 -7,-3 -2,-1 -4,-3 -5,-5 -1,-3 -1,-5 -1,-8 0,-3 1,-6 2,-8 1,-2 4,-4 6,-6 3,-1 6,-2 10,-3 4,-1 9,-1 13,-1l9 0 0 -5c0,-2 0,-4 -1,-5 0,-2 -1,-3 -2,-4 -1,-2 -3,-2 -5,-3 -1,-1 -4,-1 -6,-1 -3,0 -6,0 -8,1 -2,1 -4,1 -6,2 -2,1 -3,2 -4,2 -1,1 -2,1 -3,1 0,0 0,0 -1,0 0,0 0,-1 0,-1 -1,0 -1,-1 -1,-1 0,-1 0,-1 0,-2 0,-1 0,-2 0,-2 0,-1 1,-2 1,-2 1,-1 2,-1 4,-2 1,-1 3,-1 5,-2 2,-1 4,-1 7,-1 2,-1 4,-1 7,-1 4,0 8,0 11,1 3,1 6,3 8,4 2,2 3,4 4,7 1,2 2,6 2,9l0 38zm-12 -26l-10 0c-3,0 -6,0 -8,1 -2,0 -4,1 -6,2 -1,1 -2,2 -3,3 -1,2 -1,3 -1,5 0,3 1,5 3,7 2,2 5,2 9,2 3,0 5,0 8,-2 3,-1 5,-3 8,-6l0 -12z"/>
  <path id="9" class="fil1" d="M2304 541c0,2 -1,3 -2,4 -1,0 -2,1 -3,1l-41 0c0,3 0,6 1,8 1,3 2,5 3,7 2,1 4,3 7,4 2,1 6,1 9,1 3,0 6,0 8,-1 3,0 5,0 6,-1 2,0 4,-1 5,-1 1,-1 2,-1 2,-1 0,0 1,0 1,0 0,0 0,1 1,1 0,0 0,0 0,1 0,1 0,1 0,2 0,0 0,1 0,1 0,1 0,1 0,1 0,1 0,1 -1,1 0,0 0,1 0,1 0,0 -1,0 -2,1 -2,1 -3,1 -5,2 -2,0 -5,0 -7,1 -3,0 -6,0 -9,0 -5,0 -9,0 -13,-2 -4,-1 -7,-3 -10,-5 -3,-3 -5,-6 -6,-10 -1,-4 -2,-8 -2,-13 0,-5 1,-9 2,-13 1,-4 3,-7 6,-10 3,-2 6,-4 10,-6 3,-1 7,-2 12,-2 5,0 9,1 13,2 3,1 6,3 8,6 2,2 4,5 5,8 1,3 2,7 2,10l0 2zm-12 -3c0,-5 -1,-9 -4,-12 -3,-4 -7,-5 -13,-5 -2,0 -5,0 -7,1 -2,1 -4,3 -5,4 -2,2 -3,4 -4,6 -1,2 -1,4 -1,6l34 0z"/>
  <path id="10" class="fil1" d="M2412 497c0,1 0,2 0,2 0,1 -1,1 -1,2 0,0 0,0 -1,1 0,0 0,0 -1,0l-25 0 0 70c0,0 0,0 0,1 0,0 -1,0 -1,0 -1,0 -1,0 -2,1 -1,0 -2,0 -3,0 -1,0 -2,0 -3,0 -1,-1 -1,-1 -2,-1 0,0 -1,0 -1,0 0,-1 0,-1 0,-1l0 -70 -25 0c-1,0 -1,0 -1,0 -1,-1 -1,-1 -1,-1 0,-1 -1,-1 -1,-2 0,0 0,-1 0,-2 0,0 0,-1 0,-2 0,0 1,-1 1,-1 0,-1 0,-1 1,-1 0,0 0,0 1,0l62 0c1,0 1,0 1,0 1,0 1,0 1,1 0,0 1,1 1,1 0,1 0,2 0,2z"/>
  <path id="11" class="fil1" d="M2452 519c0,1 0,2 -1,3 0,0 0,1 0,1 0,0 0,1 0,1 -1,0 -1,0 -1,0 -1,0 -1,0 -2,0 0,0 -1,0 -1,-1 -1,0 -2,0 -3,0 0,0 -1,0 -2,0 -2,0 -3,0 -4,0 -1,1 -2,1 -3,2 -2,1 -3,3 -4,4 -2,2 -3,4 -5,6l0 37c0,0 0,0 0,1 0,0 0,0 -1,0 0,0 -1,0 -2,1 0,0 -1,0 -2,0 -2,0 -3,0 -3,0 -1,-1 -2,-1 -2,-1 -1,0 -1,0 -1,0 0,-1 0,-1 0,-1l0 -56c0,-1 0,-1 0,-1 0,0 0,-1 1,-1 0,0 1,0 1,0 1,0 2,0 3,0 1,0 2,0 3,0 0,0 1,0 1,0 1,0 1,1 1,1 0,0 0,0 0,1l0 8c2,-2 4,-4 5,-6 2,-1 3,-2 4,-3 2,-1 3,-1 4,-2 2,0 3,0 4,0 1,0 2,0 2,0 1,0 2,0 3,0 1,1 1,1 2,1 1,0 1,0 2,1 0,0 0,0 0,0 0,0 0,1 0,1 0,0 1,1 1,1 0,1 0,1 0,2z"/>
  <path id="12" class="fil1" d="M2509 572c0,0 0,1 0,1 -1,0 -1,0 -2,0 -1,1 -2,1 -3,1 -1,0 -2,0 -3,-1 0,0 -1,0 -1,0 -1,0 -1,-1 -1,-1l0 -6c-2,3 -6,5 -9,6 -3,2 -7,2 -11,2 -3,0 -6,0 -9,-1 -2,0 -5,-2 -7,-3 -1,-1 -3,-3 -4,-5 -1,-3 -2,-5 -2,-8 0,-3 1,-6 3,-8 1,-2 3,-4 6,-6 3,-1 6,-2 10,-3 4,-1 8,-1 13,-1l9 0 0 -5c0,-2 -1,-4 -1,-5 -1,-2 -1,-3 -3,-4 -1,-2 -2,-2 -4,-3 -2,-1 -4,-1 -7,-1 -3,0 -5,0 -7,1 -3,1 -5,1 -6,2 -2,1 -3,2 -5,2 -1,1 -2,1 -2,1 0,0 -1,0 -1,0 0,0 -1,-1 -1,-1 0,0 0,-1 0,-1 0,-1 0,-1 0,-2 0,-1 0,-2 0,-2 0,-1 0,-2 1,-2 1,-1 2,-1 3,-2 2,-1 4,-1 6,-2 2,-1 4,-1 6,-1 3,-1 5,-1 7,-1 5,0 9,0 12,1 3,1 6,3 8,4 2,2 3,4 4,7 1,2 1,6 1,9l0 38zm-11 -26l-10 0c-3,0 -6,0 -8,1 -3,0 -5,1 -6,2 -2,1 -3,2 -4,3 0,2 -1,3 -1,5 0,3 1,5 3,7 3,2 5,2 9,2 3,0 6,0 9,-2 2,-1 5,-3 8,-6l0 -12z"/>
  <path id="13" class="fil1" d="M2585 572c0,0 -1,0 -1,1 0,0 0,0 -1,0 0,0 -1,0 -1,1 -1,0 -2,0 -3,0 -1,0 -2,0 -3,0 -1,-1 -1,-1 -2,-1 0,0 -1,0 -1,0 0,-1 0,-1 0,-1l0 -33c0,-3 0,-6 -1,-8 0,-2 -1,-3 -2,-5 -1,-1 -3,-2 -4,-3 -2,-1 -4,-1 -6,-1 -3,0 -6,1 -9,3 -3,1 -6,4 -9,8l0 39c0,0 0,0 0,1 0,0 -1,0 -1,0 -1,0 -1,0 -2,1 -1,0 -2,0 -3,0 -1,0 -2,0 -3,0 0,-1 -1,-1 -1,-1 -1,0 -1,0 -1,0 -1,-1 -1,-1 -1,-1l0 -56c0,-1 0,-1 1,-1 0,0 0,-1 0,-1 1,0 1,0 2,0 1,0 2,0 3,0 1,0 2,0 2,0 1,0 1,0 2,0 0,0 0,1 1,1 0,0 0,0 0,1l0 7c3,-3 7,-6 10,-8 4,-1 8,-2 11,-2 4,0 8,1 11,2 3,1 5,3 7,5 1,2 3,4 3,7 1,3 2,7 2,11l0 34z"/>
  <path id="14" class="fil1" d="M2645 556c0,3 0,6 -2,8 -1,2 -2,4 -5,6 -2,1 -4,2 -7,3 -4,1 -7,1 -10,1 -3,0 -5,0 -7,0 -2,0 -4,-1 -5,-1 -2,-1 -3,-1 -4,-2 -2,0 -2,-1 -3,-1 0,0 -1,-1 -1,-2 0,-1 0,-2 0,-3 0,-1 0,-1 0,-2 0,0 0,-1 0,-1 0,0 0,-1 1,-1 0,0 0,0 1,0 0,0 1,0 2,1 1,0 2,1 4,2 1,0 3,1 5,1 2,1 4,1 7,1 2,0 3,0 5,0 2,-1 3,-1 4,-2 1,-1 2,-2 3,-3 0,-1 1,-2 1,-4 0,-1 -1,-3 -2,-4 -1,-1 -2,-2 -3,-3 -2,0 -3,-1 -5,-2 -2,0 -4,-1 -6,-2 -2,-1 -4,-1 -6,-2 -2,-1 -3,-2 -5,-3 -1,-2 -2,-3 -3,-5 -1,-2 -2,-4 -2,-6 0,-3 1,-5 2,-7 1,-2 2,-4 4,-5 2,-2 4,-3 7,-4 3,-1 6,-1 10,-1 2,0 4,0 5,0 2,1 3,1 5,1 1,1 2,1 3,2 1,0 2,0 2,1 1,0 1,0 1,1 1,0 1,0 1,0 0,1 0,1 0,2 0,0 0,1 0,1 0,1 0,2 0,2 0,1 0,1 0,1 -1,1 -1,1 -1,1 0,0 0,0 -1,0 0,0 -1,0 -2,0 0,-1 -1,-1 -3,-2 -1,0 -2,-1 -4,-1 -2,-1 -4,-1 -6,-1 -2,0 -4,0 -5,1 -2,0 -3,0 -4,1 -1,1 -2,2 -2,3 -1,1 -1,2 -1,3 0,2 1,3 2,4 1,1 2,2 3,3 2,1 3,1 5,2 2,1 4,2 6,2 2,1 4,2 6,3 2,0 4,2 5,3 2,1 3,2 4,4 1,2 1,4 1,6z"/>
  <path id="15" class="fil1" d="M2720 543c0,5 -1,9 -2,13 -1,4 -3,7 -5,10 -3,3 -6,5 -9,6 -3,2 -7,2 -12,2 -1,0 -3,0 -5,0 -1,0 -3,-1 -4,-2 -2,0 -3,-1 -5,-2 -1,-1 -3,-3 -5,-4l0 28c0,0 0,1 0,1 0,0 0,0 -1,0 0,1 -1,1 -2,1 0,0 -1,0 -3,0 -1,0 -2,0 -2,0 -1,0 -2,0 -2,-1 -1,0 -1,0 -1,0 0,0 0,-1 0,-1l0 -78c0,-1 0,-1 0,-1 0,0 0,-1 1,-1 0,0 1,0 1,0 1,0 2,0 3,0 1,0 2,0 2,0 1,0 1,0 2,0 0,0 1,1 1,1 0,0 0,0 0,1l0 7c2,-2 4,-3 5,-4 2,-2 4,-3 6,-4 2,0 3,-1 5,-1 2,-1 4,-1 6,-1 5,0 9,1 12,2 3,2 6,4 8,7 2,2 3,6 4,9 1,4 2,8 2,12zm-12 1c0,-3 -1,-6 -1,-8 -1,-3 -2,-5 -3,-7 -1,-3 -2,-4 -4,-5 -2,-2 -5,-2 -8,-2 -1,0 -3,0 -4,0 -2,1 -3,1 -5,2 -1,1 -3,2 -4,4 -2,1 -4,3 -6,5l0 22c3,3 7,6 9,8 3,2 6,3 9,3 3,0 6,-1 8,-2 2,-1 4,-3 5,-5 1,-2 2,-5 3,-7 0,-3 1,-5 1,-8z"/>
  <path id="16" class="fil1" d="M2795 543c0,5 0,9 -2,13 -1,4 -3,7 -6,10 -2,2 -6,5 -10,6 -4,2 -8,2 -14,2 -5,0 -9,0 -13,-2 -4,-1 -7,-3 -10,-6 -2,-2 -4,-5 -6,-9 -1,-4 -1,-8 -1,-13 0,-4 0,-9 2,-12 1,-4 3,-8 6,-10 2,-3 6,-5 10,-7 4,-1 8,-2 14,-2 5,0 9,1 13,2 4,1 7,3 10,6 2,3 4,6 6,9 1,4 1,8 1,13zm-12 1c0,-3 0,-6 -1,-9 0,-3 -1,-5 -3,-7 -1,-2 -3,-4 -6,-5 -2,-1 -5,-2 -9,-2 -3,0 -6,1 -9,2 -2,1 -4,3 -6,5 -1,2 -2,4 -3,7 -1,2 -1,5 -1,8 0,4 0,6 1,9 0,3 1,5 3,7 1,2 3,4 6,5 2,1 5,2 9,2 3,0 6,-1 9,-2 2,-1 4,-2 6,-4 1,-2 3,-5 3,-7 1,-3 1,-6 1,-9z"/>
  <path id="17" class="fil1" d="M2849 519c0,1 0,2 0,3 0,0 0,1 0,1 0,0 0,1 -1,1 0,0 0,0 0,0 -1,0 -1,0 -2,0 0,0 -1,0 -2,-1 0,0 -1,0 -2,0 -1,0 -2,0 -3,0 -1,0 -2,0 -3,0 -1,1 -2,1 -4,2 -1,1 -2,3 -3,4 -2,2 -3,4 -5,6l0 37c0,0 0,0 0,1 0,0 -1,0 -1,0 0,0 -1,0 -2,1 -1,0 -2,0 -3,0 -1,0 -2,0 -3,0 0,-1 -1,-1 -1,-1 -1,0 -1,0 -1,0 0,-1 0,-1 0,-1l0 -56c0,-1 0,-1 0,-1 0,0 0,-1 1,-1 0,0 1,0 1,0 1,0 2,0 3,0 1,0 2,0 2,0 1,0 2,0 2,0 0,0 1,1 1,1 0,0 0,0 0,1l0 8c2,-2 3,-4 5,-6 1,-1 3,-2 4,-3 2,-1 3,-1 4,-2 2,0 3,0 4,0 1,0 2,0 2,0 1,0 2,0 3,0 1,1 1,1 2,1 1,0 1,0 1,1 1,0 1,0 1,0 0,0 0,1 0,1 0,0 0,1 0,1 0,1 0,1 0,2z"/>
  <path id="18" class="fil1" d="M2895 568c0,1 0,2 0,2 0,1 -1,2 -1,2 0,0 -1,1 -2,1 0,0 -1,0 -2,1 -1,0 -2,0 -3,0 -1,0 -2,0 -3,0 -4,0 -6,0 -9,-1 -2,-1 -4,-2 -6,-3 -1,-2 -2,-4 -3,-6 0,-3 -1,-5 -1,-9l0 -32 -9 0c0,0 -1,-1 -1,-1 -1,-1 -1,-2 -1,-4 0,0 0,-1 0,-1 0,-1 0,-2 1,-2 0,0 0,0 0,-1 1,0 1,0 1,0l9 0 0 -13c0,0 0,-1 0,-1 1,0 1,0 1,-1 1,0 1,0 2,0 1,0 2,0 3,0 1,0 2,0 3,0 1,0 1,0 2,0 0,1 0,1 1,1 0,0 0,1 0,1l0 13 16 0c0,0 1,0 1,0 0,1 0,1 1,1 0,0 0,1 0,2 0,0 0,1 0,1 0,2 0,3 0,4 -1,0 -1,1 -2,1l-16 0 0 31c0,4 0,7 2,9 1,2 3,3 7,3 1,0 2,-1 2,-1 1,0 2,0 3,0 0,-1 1,-1 1,-1 1,0 1,0 2,0 0,0 0,0 0,0 0,0 1,0 1,1 0,0 0,0 0,1 0,0 0,1 0,2z"/>
  <path id="19" class="fil1" d="M2963 541c0,2 -1,3 -2,4 -1,0 -2,1 -3,1l-41 0c0,3 0,6 1,8 0,3 2,5 3,7 2,1 4,3 7,4 2,1 5,1 9,1 3,0 6,0 8,-1 3,0 5,0 6,-1 2,0 3,-1 4,-1 2,-1 2,-1 3,-1 0,0 1,0 1,0 0,0 0,1 0,1 1,0 1,0 1,1 0,1 0,1 0,2 0,0 0,1 0,1 0,1 0,1 0,1 0,1 -1,1 -1,1 0,0 0,1 0,1 -1,0 -1,0 -3,1 -1,1 -3,1 -5,2 -2,0 -4,0 -7,1 -2,0 -5,0 -8,0 -5,0 -10,0 -13,-2 -4,-1 -8,-3 -10,-5 -3,-3 -5,-6 -6,-10 -2,-4 -2,-8 -2,-13 0,-5 0,-9 2,-13 1,-4 3,-7 6,-10 2,-2 6,-4 9,-6 4,-1 8,-2 13,-2 5,0 9,1 12,2 4,1 7,3 9,6 2,2 4,5 5,8 1,3 2,7 2,10l0 2zm-12 -3c0,-5 -1,-9 -4,-12 -3,-4 -7,-5 -13,-5 -3,0 -5,0 -7,1 -2,1 -4,3 -6,4 -1,2 -2,4 -3,6 -1,2 -1,4 -1,6l34 0z"/>
  <polygon class="fil2" points="1678,455 1677,459 1676,463 1675,467 1674,471 1672,476 1671,480 1669,484 1667,487 1665,491 1663,495 1661,499 1659,502 1657,506 1654,509 1652,513 1649,516 1647,519 1644,522 1641,525 1638,528 1635,531 1632,534 1629,537 1625,540 1622,542 1619,545 1615,547 1611,549 1608,552 1604,554 1600,556 1596,558 1592,560 1588,562 1584,564 1580,565 1575,567 1571,568 1567,570 1562,571 1558,572 1553,574 1548,575 1544,576 1540,577 1540,480 1541,479 1542,478 1544,478 1545,477 1547,476 1548,475 1550,474 1552,472 1555,470 1557,467 1560,465 1562,462 1563,460 1565,457 1567,454 1567,453 1568,451 1569,450 1569,448 1570,446 1570,444 1571,443 1571,441 1572,439 1572,437 1572,435 1572,433 1573,431 1573,429 1573,427 1573,425 1573,423 1573,420 1573,418 1572,416 1572,415 1572,413 1571,411 1571,409 1570,407 1570,406 1569,404 1568,403 1567,401 1567,400 1566,398 1565,397 1562,394 1560,391 1557,388 1554,386 1551,383 1547,380 1544,378 1540,375 1538,374 1536,373 1534,372 1532,370 1530,369 1527,368 1525,367 1523,366 1521,365 1518,364 1516,362 1514,361 1511,360 1509,359 1506,358 1504,357 1501,356 1498,355 1496,354 1493,353 1490,352 1488,351 1485,350 1482,349 1479,348 1477,347 1474,346 1471,345 1468,343 1465,342 1463,341 1460,340 1457,339 1454,338 1451,336 1448,335 1445,334 1443,333 1440,332 1437,330 1434,329 1431,328 1428,326 1426,325 1423,323 1420,322 1417,321 1415,319 1412,318 1409,316 1406,314 1403,313 1401,311 1398,309 1395,308 1393,306 1390,304 1388,302 1385,300 1383,298 1380,296 1378,294 1376,292 1374,289 1371,287 1369,285 1367,282 1365,280 1363,278 1361,275 1359,272 1357,270 1355,267 1353,264 1352,262 1350,259 1348,256 1347,253 1345,250 1344,247 1343,244 1341,240 1340,237 1339,234 1338,230 1337,227 1336,223 1335,220 1335,216 1334,212 1334,208 1333,204 1333,200 1333,196 1333,192 1333,188 1333,184 1333,181 1333,177 1333,173 1334,170 1334,166 1335,162 1336,159 1336,155 1337,151 1338,148 1339,144 1340,141 1342,137 1343,134 1344,130 1346,127 1347,123 1349,120 1351,117 1353,114 1355,110 1357,107 1359,104 1361,101 1364,98 1366,95 1369,92 1371,89 1374,87 1377,84 1380,81 1383,79 1386,76 1389,74 1392,72 1396,69 1399,67 1402,65 1406,63 1410,61 1414,59 1417,57 1421,55 1425,53 1429,52 1434,50 1438,48 1442,47 1447,45 1451,44 1455,43 1455,144 1453,146 1451,148 1449,150 1447,152 1446,155 1445,157 1443,160 1442,163 1441,165 1441,168 1440,171 1439,174 1439,177 1439,180 1439,183 1439,186 1439,188 1439,190 1439,192 1440,194 1440,196 1440,198 1441,199 1441,201 1442,203 1443,204 1444,206 1444,208 1445,209 1446,211 1447,212 1450,215 1452,218 1455,221 1458,224 1461,226 1465,229 1468,231 1472,234 1474,235 1476,236 1478,238 1480,239 1482,240 1485,241 1487,242 1489,243 1491,245 1494,246 1496,247 1499,248 1501,249 1504,250 1506,251 1509,252 1512,253 1514,254 1520,256 1523,257 1525,259 1528,260 1531,261 1534,262 1536,263 1539,264 1542,265 1545,266 1548,267 1551,268 1553,270 1556,271 1559,272 1562,273 1565,274 1568,276 1571,277 1573,278 1576,279 1579,281 1582,282 1585,283 1588,285 1590,286 1593,287 1596,289 1599,290 1602,292 1605,293 1607,295 1610,296 1613,298 1616,300 1618,301 1621,303 1624,305 1626,307 1629,309 1631,311 1634,313 1636,315 1638,317 1641,319 1643,321 1645,324 1647,326 1649,328 1651,331 1653,333 1655,336 1657,338 1659,341 1661,343 1663,346 1664,349 1666,352 1667,355 1669,358 1670,360 1672,364 1673,367 1674,370 1675,373 1676,377 1677,380 1678,384 1679,387 1680,391 1680,395 1681,398 1681,402 1681,406 1682,410 1682,414 1682,418 1682,423 1681,427 1681,432 1681,437 1680,441 1680,446 1679,450 "/>
  <polygon class="fil3" points="1523,493 120,493 120,493 70,493 70,451 0,535 70,620 70,578 120,578 120,578 1523,578 "/>
  <polygon class="fil3" points="1477,42 2880,42 2880,42 2930,42 2930,0 3000,85 2930,169 2930,127 2880,127 2880,127 1477,127 "/>
 </g>
</svg>
